<svg width="24" height="24" viewBox="0 0 24 24" fill="none" xmlns="http://www.w3.org/2000/svg">
<g clip-path="url(#clip0_168_520)">
<path d="M4 19C2.9 19 1.95833 18.6083 1.175 17.825C0.391667 17.0417 0 16.1 0 15C0 14.05 0.304167 13.2083 0.9125 12.475C1.52083 11.7417 2.3 11.2833 3.25 11.1L2.55 10.5H0V9H4.5L7 10.5L11 9H14.15L12.6 7H10V5H13.55L15.65 7.7L19 6V9H16.7L18.45 11.3C18.7 11.2 18.9542 11.125 19.2125 11.075C19.4708 11.025 19.7333 11 20 11C21.1 11 22.0417 11.3917 22.825 12.175C23.6083 12.9583 24 13.9 24 15C24 16.1 23.6083 17.0417 22.825 17.825C22.0417 18.6083 21.1 19 20 19C18.9 19 17.9583 18.6083 17.175 17.825C16.3917 17.0417 16 16.1 16 15C16 14.55 16.0792 14.1125 16.2375 13.6875C16.3958 13.2625 16.6167 12.8667 16.9 12.5L16.4 11.9L13 17H10L8 15.25C7.91667 16.3 7.49167 17.1875 6.725 17.9125C5.95833 18.6375 5.05 19 4 19ZM4 17C4.55 17 5.02083 16.8042 5.4125 16.4125C5.80417 16.0208 6 15.55 6 15C6 14.45 5.80417 13.9792 5.4125 13.5875C5.02083 13.1958 4.55 13 4 13C3.45 13 2.97917 13.1958 2.5875 13.5875C2.19583 13.9792 2 14.45 2 15C2 15.55 2.19583 16.0208 2.5875 16.4125C2.97917 16.8042 3.45 17 4 17ZM20 17C20.55 17 21.0208 16.8042 21.4125 16.4125C21.8042 16.0208 22 15.55 22 15C22 14.45 21.8042 13.9792 21.4125 13.5875C21.0208 13.1958 20.55 13 20 13C19.45 13 18.9792 13.1958 18.5875 13.5875C18.1958 13.9792 18 14.45 18 15C18 15.55 18.1958 16.0208 18.5875 16.4125C18.9792 16.8042 19.45 17 20 17ZM11.95 15L14.6 11H11.35L7.75 12.35L10.75 15H11.95Z" fill="white"/>
</g>
<defs>
<clipPath id="clip0_168_520">
<rect width="24" height="24" fill="white"/>
</clipPath>
</defs>
</svg>
